<mxfile host="Electron" modified="2023-08-23T02:12:06.883Z" agent="Mozilla/5.0 (Windows NT 10.0; Win64; x64) AppleWebKit/537.36 (KHTML, like Gecko) draw.io/21.6.8 Chrome/114.0.5735.289 Electron/25.5.0 Safari/537.36" etag="crvybSsajj-M7NovJui7" version="21.6.8" type="device">
  <diagram name="Page-1" id="wBWGFLNwGTME8Dsx8O8w">
    <mxGraphModel dx="1195" dy="697" grid="0" gridSize="10" guides="1" tooltips="1" connect="1" arrows="1" fold="1" page="0" pageScale="1" pageWidth="850" pageHeight="1100" math="0" shadow="0">
      <root>
        <mxCell id="0" />
        <mxCell id="1" parent="0" />
        <mxCell id="hCyrlginfMnfj5Oz-3c1-8" value="VPC" style="points=[[0,0],[0.25,0],[0.5,0],[0.75,0],[1,0],[1,0.25],[1,0.5],[1,0.75],[1,1],[0.75,1],[0.5,1],[0.25,1],[0,1],[0,0.75],[0,0.5],[0,0.25]];outlineConnect=0;gradientColor=none;html=1;whiteSpace=wrap;fontSize=12;fontStyle=0;container=1;pointerEvents=0;collapsible=0;recursiveResize=0;shape=mxgraph.aws4.group;grIcon=mxgraph.aws4.group_vpc;strokeColor=#248814;fillColor=none;verticalAlign=top;align=left;spacingLeft=30;fontColor=#AAB7B8;dashed=0;" vertex="1" parent="1">
          <mxGeometry x="190" y="270" width="530" height="300" as="geometry" />
        </mxCell>
        <mxCell id="hCyrlginfMnfj5Oz-3c1-14" value="Cluster" style="fillColor=none;strokeColor=#FF9933;dashed=1;verticalAlign=top;fontStyle=1;fontColor=#FF9933;whiteSpace=wrap;html=1;" vertex="1" parent="hCyrlginfMnfj5Oz-3c1-8">
          <mxGeometry x="110" y="50" width="340" height="200" as="geometry" />
        </mxCell>
        <mxCell id="hCyrlginfMnfj5Oz-3c1-2" value="Fargate" style="sketch=0;points=[[0,0,0],[0.25,0,0],[0.5,0,0],[0.75,0,0],[1,0,0],[0,1,0],[0.25,1,0],[0.5,1,0],[0.75,1,0],[1,1,0],[0,0.25,0],[0,0.5,0],[0,0.75,0],[1,0.25,0],[1,0.5,0],[1,0.75,0]];outlineConnect=0;fontColor=#FFFFFF;gradientColor=#F78E04;gradientDirection=north;fillColor=#D05C17;strokeColor=#ffffff;dashed=0;verticalLabelPosition=bottom;verticalAlign=top;align=center;html=1;fontSize=12;fontStyle=1;aspect=fixed;shape=mxgraph.aws4.resourceIcon;resIcon=mxgraph.aws4.fargate;" vertex="1" parent="hCyrlginfMnfj5Oz-3c1-8">
          <mxGeometry x="120" y="30" width="46.5" height="46.5" as="geometry" />
        </mxCell>
        <mxCell id="hCyrlginfMnfj5Oz-3c1-11" value="Application" style="sketch=0;outlineConnect=0;fontColor=#FFFFFF;gradientColor=none;fillColor=#D45B07;strokeColor=none;dashed=0;verticalLabelPosition=bottom;verticalAlign=top;align=center;html=1;fontSize=12;fontStyle=1;aspect=fixed;pointerEvents=1;shape=mxgraph.aws4.container_1;" vertex="1" parent="hCyrlginfMnfj5Oz-3c1-8">
          <mxGeometry x="190" y="106.75" width="48" height="31" as="geometry" />
        </mxCell>
        <mxCell id="hCyrlginfMnfj5Oz-3c1-12" value="X-Ray Daemon" style="sketch=0;outlineConnect=0;fontColor=#FFFFFF;gradientColor=none;fillColor=#D45B07;strokeColor=none;dashed=0;verticalLabelPosition=bottom;verticalAlign=top;align=center;html=1;fontSize=12;fontStyle=1;aspect=fixed;pointerEvents=1;shape=mxgraph.aws4.container_1;" vertex="1" parent="hCyrlginfMnfj5Oz-3c1-8">
          <mxGeometry x="190" y="177" width="48" height="31" as="geometry" />
        </mxCell>
        <mxCell id="hCyrlginfMnfj5Oz-3c1-4" value="Service" style="sketch=0;outlineConnect=0;fontColor=#FFFFFF;gradientColor=none;fillColor=#D45B07;strokeColor=none;dashed=0;verticalLabelPosition=bottom;verticalAlign=top;align=center;html=1;fontSize=12;fontStyle=1;aspect=fixed;pointerEvents=1;shape=mxgraph.aws4.ecs_service;" vertex="1" parent="hCyrlginfMnfj5Oz-3c1-8">
          <mxGeometry x="340" y="137.75" width="39" height="48" as="geometry" />
        </mxCell>
        <mxCell id="hCyrlginfMnfj5Oz-3c1-3" value="Task" style="sketch=0;outlineConnect=0;fontColor=#FFFFFF;gradientColor=none;fillColor=#D45B07;strokeColor=none;dashed=0;verticalLabelPosition=bottom;verticalAlign=top;align=center;html=1;fontSize=12;fontStyle=1;aspect=fixed;pointerEvents=1;shape=mxgraph.aws4.ecs_task;" vertex="1" parent="hCyrlginfMnfj5Oz-3c1-8">
          <mxGeometry x="261.5" y="137.75" width="37" height="48" as="geometry" />
        </mxCell>
        <mxCell id="hCyrlginfMnfj5Oz-3c1-15" style="edgeStyle=orthogonalEdgeStyle;rounded=0;orthogonalLoop=1;jettySize=auto;html=1;strokeWidth=2;endArrow=block;endFill=1;" edge="1" parent="hCyrlginfMnfj5Oz-3c1-8" source="hCyrlginfMnfj5Oz-3c1-7" target="hCyrlginfMnfj5Oz-3c1-14">
          <mxGeometry relative="1" as="geometry" />
        </mxCell>
        <mxCell id="hCyrlginfMnfj5Oz-3c1-7" value="ALB" style="outlineConnect=0;dashed=0;verticalLabelPosition=bottom;verticalAlign=top;align=center;html=1;shape=mxgraph.aws3.application_load_balancer;fillColor=#F58534;gradientColor=none;fontStyle=1" vertex="1" parent="hCyrlginfMnfj5Oz-3c1-8">
          <mxGeometry x="-30" y="113.75" width="69" height="72" as="geometry" />
        </mxCell>
        <mxCell id="hCyrlginfMnfj5Oz-3c1-21" value="" style="shape=image;verticalLabelPosition=bottom;labelBackgroundColor=default;verticalAlign=top;aspect=fixed;imageAspect=0;image=https://cdn.worldvectorlogo.com/logos/golang-1.svg;" vertex="1" parent="hCyrlginfMnfj5Oz-3c1-8">
          <mxGeometry x="184.25" y="100" width="59.5" height="29.75" as="geometry" />
        </mxCell>
        <mxCell id="hCyrlginfMnfj5Oz-3c1-23" value="" style="sketch=0;points=[[0,0,0],[0.25,0,0],[0.5,0,0],[0.75,0,0],[1,0,0],[0,1,0],[0.25,1,0],[0.5,1,0],[0.75,1,0],[1,1,0],[0,0.25,0],[0,0.5,0],[0,0.75,0],[1,0.25,0],[1,0.5,0],[1,0.75,0]];outlineConnect=0;fontColor=#FFFFFF;gradientColor=#4D72F3;gradientDirection=north;fillColor=#3334B9;strokeColor=#ffffff;dashed=0;verticalLabelPosition=bottom;verticalAlign=top;align=center;html=1;fontSize=12;fontStyle=1;aspect=fixed;shape=mxgraph.aws4.resourceIcon;resIcon=mxgraph.aws4.xray;" vertex="1" parent="hCyrlginfMnfj5Oz-3c1-8">
          <mxGeometry x="210" y="170" width="20" height="20" as="geometry" />
        </mxCell>
        <mxCell id="hCyrlginfMnfj5Oz-3c1-6" value="X-Ray" style="sketch=0;points=[[0,0,0],[0.25,0,0],[0.5,0,0],[0.75,0,0],[1,0,0],[0,1,0],[0.25,1,0],[0.5,1,0],[0.75,1,0],[1,1,0],[0,0.25,0],[0,0.5,0],[0,0.75,0],[1,0.25,0],[1,0.5,0],[1,0.75,0]];outlineConnect=0;fontColor=#FFFFFF;gradientColor=#4D72F3;gradientDirection=north;fillColor=#3334B9;strokeColor=#ffffff;dashed=0;verticalLabelPosition=bottom;verticalAlign=top;align=center;html=1;fontSize=12;fontStyle=1;aspect=fixed;shape=mxgraph.aws4.resourceIcon;resIcon=mxgraph.aws4.xray;" vertex="1" parent="1">
          <mxGeometry x="785" y="460" width="70" height="70" as="geometry" />
        </mxCell>
        <mxCell id="hCyrlginfMnfj5Oz-3c1-16" style="edgeStyle=orthogonalEdgeStyle;rounded=0;orthogonalLoop=1;jettySize=auto;html=1;strokeWidth=2;endArrow=block;endFill=1;" edge="1" parent="1" source="hCyrlginfMnfj5Oz-3c1-9" target="hCyrlginfMnfj5Oz-3c1-7">
          <mxGeometry relative="1" as="geometry" />
        </mxCell>
        <mxCell id="hCyrlginfMnfj5Oz-3c1-9" value="" style="outlineConnect=0;dashed=0;verticalLabelPosition=bottom;verticalAlign=top;align=center;html=1;shape=mxgraph.aws3.internet;fillColor=#D2D3D3;gradientColor=none;" vertex="1" parent="1">
          <mxGeometry y="390" width="59.5" height="59.5" as="geometry" />
        </mxCell>
        <mxCell id="hCyrlginfMnfj5Oz-3c1-17" value="DynamoDB" style="sketch=0;points=[[0,0,0],[0.25,0,0],[0.5,0,0],[0.75,0,0],[1,0,0],[0,1,0],[0.25,1,0],[0.5,1,0],[0.75,1,0],[1,1,0],[0,0.25,0],[0,0.5,0],[0,0.75,0],[1,0.25,0],[1,0.5,0],[1,0.75,0]];outlineConnect=0;fontColor=#FFFFFF;gradientColor=#4D72F3;gradientDirection=north;fillColor=#3334B9;strokeColor=#ffffff;dashed=0;verticalLabelPosition=bottom;verticalAlign=top;align=center;html=1;fontSize=12;fontStyle=0;aspect=fixed;shape=mxgraph.aws4.resourceIcon;resIcon=mxgraph.aws4.dynamodb;" vertex="1" parent="1">
          <mxGeometry x="785" y="310" width="70" height="70" as="geometry" />
        </mxCell>
        <mxCell id="hCyrlginfMnfj5Oz-3c1-18" style="rounded=0;orthogonalLoop=1;jettySize=auto;html=1;strokeWidth=2;endArrow=block;endFill=1;" edge="1" parent="1" source="hCyrlginfMnfj5Oz-3c1-14" target="hCyrlginfMnfj5Oz-3c1-6">
          <mxGeometry relative="1" as="geometry">
            <mxPoint x="184" y="430" as="sourcePoint" />
            <mxPoint x="310" y="430" as="targetPoint" />
          </mxGeometry>
        </mxCell>
        <mxCell id="hCyrlginfMnfj5Oz-3c1-19" style="rounded=0;orthogonalLoop=1;jettySize=auto;html=1;strokeWidth=2;endArrow=block;endFill=1;" edge="1" parent="1" source="hCyrlginfMnfj5Oz-3c1-14" target="hCyrlginfMnfj5Oz-3c1-17">
          <mxGeometry relative="1" as="geometry">
            <mxPoint x="650" y="430" as="sourcePoint" />
            <mxPoint x="785" y="345" as="targetPoint" />
          </mxGeometry>
        </mxCell>
      </root>
    </mxGraphModel>
  </diagram>
</mxfile>
